<svg xmlns="http://www.w3.org/2000/svg" viewBox="0 0 512 512" style="height: 512px; width: 512px;"><rect fill="#000000" fill-opacity="0.05" height="512" width="512" rx="32" ry="32"></rect><g class="" transform="translate(0,0)" style=""><g><path d="M391.69 15.94C375.322 16.013 360.69 21.01 349.715 31.984L73.83 307.87C81.083 307.013 88.425 307.272 95.6 308.638C109.44 311.268 122.217 317.615 133.584 326.352C160.751 302.242 275.469 206.642 275.469 206.642C234.924 253.379 187.214 296.534 154.933 347.402C155.526 348.136 156.128 348.862 156.708 349.607C172.538 369.962 183.378 394.877 186.631 419.17C187.586 426.305 187.866 433.447 187.371 440.4L368.431 259.34L360.689 254.693C360.209 254.908 359.727 255.123 359.196 255.34L313.942 277.967L359.196 232.713C359.196 232.803 359.216 232.893 359.222 232.983L359.294 232.863L402.814 258.977C404.086 253.079 406.608 247.564 410.638 242.927C415.3 237.557 421.848 233.849 429.638 232.187L403.514 188.645L418.949 179.383L429.989 197.783L472.751 155.021C493.787 133.986 499.147 113.694 496.021 94.631C494.391 84.689 490.198 74.948 484.108 65.884L411.232 138.759L474.754 54.062C471.104 50.111 467.177 46.425 463.002 43.032C454.076 35.764 443.9 29.662 433.307 25.096C433.489 25.273 433.677 25.446 433.857 25.623L377.29 59.565L398.958 16.228C397.635 16.121 396.31 16.043 394.984 15.995C393.885 15.956 392.786 15.939 391.687 15.945Z" class="" fill="#8b572a" fill-opacity="1"></path><path d="M435.283 249.3C429.91 249.9 426.587 252.01 424.225 254.73C422.132 257.14 420.675 260.52 420.098 264.602C424.748 263.657 428.05 261.95 430.326 259.674C432.626 257.374 434.346 254.029 435.283 249.299Z" class="" fill="#8b572a" fill-opacity="1"></path><path d="M81.69 325.282C66.393 325.217 50.287 331.58 33.348 348.362C18.528 363.372 13.518 382.902 15.676 403.747C17.846 424.732 27.676 446.647 42.1 463.692C44.367 466.372 46.755 468.912 49.225 471.325C53.009 458.873 72.189 437.981 83.137 421.601C75.182 442.935 69.647 464.615 70.517 487.211C78.323 491.431 86.551 494.301 94.932 495.461C114.402 498.154 135.152 492.397 156.222 471.541C167.62 459.935 171.529 442.011 168.792 421.558C166.032 400.948 156.367 378.485 142.5 360.656C128.633 342.826 110.756 329.838 92.238 326.318C88.762 325.649 85.231 325.302 81.691 325.281Z" class="" fill="#b89b82" fill-opacity="1"></path><path d="M73.48 345.082C93.882 344.141 116.386 353.883 133.62 371.116C162.453 399.949 168.29 440.86 146.658 462.493C135.469 473.635 118.467 477.889 99.926 474.185C111.473 473.989 121.705 469.915 129.08 462.577C147.824 443.831 143.562 409.179 119.56 385.177C95.558 361.175 60.904 356.911 42.158 375.655C34.817 383.027 30.739 393.256 30.538 404.802C26.839 386.263 31.097 369.266 42.24 358.08C50.134 350.187 61.022 345.656 73.477 345.082Z" class="selected" fill="#b89b82" fill-opacity="1"></path></g></g></svg>